<?xml version="1.0" encoding="utf-8"?>
<!-- Generator: Adobe Illustrator 21.0.0, SVG Export Plug-In . SVG Version: 6.00 Build 0)  -->
<svg version="1.1" id="Layer_1" xmlns="http://www.w3.org/2000/svg" xmlns:xlink="http://www.w3.org/1999/xlink" x="0px" y="0px"
	 viewBox="0 0 1280 60" style="enable-background:new 0 0 1280 60;" xml:space="preserve">
<style type="text/css">
	.st0{fill:#2A7D2E;}
</style>
<g id="New">
	<g id="Home---new" transform="translate(-167.000000, -4555.000000)">
		<g id="Price-table" transform="translate(89.000000, 4333.000000)">
			<g id="Group-29" transform="translate(0.000000, 122.000000)">
				<path id="bg-leaves" class="st0" d="M823.4,189.5c-1.5-1.6-3.3-2.9-5-4.4c-2.1-1.7-4.2-3.4-6.3-5.1c-0.2-0.2-0.4-0.6-0.4-0.9
					c-0.1-1.5,0.2-3.2-0.2-4.7c-0.8-4.4-1.7-8.7-3.4-12.8c-1.9-4.7-4.1-9.2-7.1-13.2c-4.2-5.6-9.3-10-15.7-13.1
					c-4.8-2.4-9.4-5-14.1-7.8c-5.7-3.3-11.4-6.4-18.1-7.3c-3.5-0.5-7-0.9-10.5-0.7c-2.2,0.2-4.5,0.5-6.7,0.5
					c-4.8-0.1-9.7-0.3-14.6-0.2c-4.8,0-9.5-0.1-14.3,1.2c-1.6,0.4-3.3,0.6-5,0.6c-2.3,0-4.6-0.4-6.9-0.2c-2.4,0.1-4.7-0.4-6.8-1.4
					c-0.4-0.2-0.7-0.3-0.9,0.2c0,0.2-0.3,0.3-0.5,0.4c1.1,1.4,2.1,2.9,3.2,4.3c1.4,1.9,2.8,3.9,4.5,5.6c2.1,2.2,4.5,4.3,6.2,6.9
					c1.4,2.2,3,4.4,4.4,6.7c2.5,4.2,5.2,8.4,9,11.6c3.8,3.2,7.4,6.8,10.8,10.5c2.3,2.5,4.8,4.9,7.8,6.5c6.5,3.7,13,7.1,19.5,10.6
					c5.1,2.8,10.6,4.1,16.3,4.8c4.6,0.6,9.3,1.1,14,1.4c2.9,0.2,5.8,0.2,8.6-0.6c3-0.9,6.2-1.7,9.2-2.5c2-0.6,4.1-1.1,5.7-2.7
					c0.7-0.7,1.6-1.2,2.5-1.7c1.3-0.8,2.1-0.7,3.2,0.3c2.4,2,4.7,3.8,7.1,5.8c2.4,2,4.5,4.1,5.7,7c0.6,1.8,1,3.5,0.6,5.4
					c-0.1,0.3,0,0.8,0.2,0.9c0.3,0.1,0.8,0.1,1,0c0.3-0.3,0.6-0.7,0.6-1.1C827.8,195.9,826.2,192.5,823.4,189.5L823.4,189.5z
					 M730.4,121.2c4.8,0.3,9.5-0.3,14.1-0.4c1.7,0,3.6,0.3,5.2,0.8c3.1,1.1,6.3,2.3,9.3,3.8c4.5,2.3,8.5,5.2,12.2,8.4
					c1.3,1.1,2.7,2.2,3.9,3.3c3.3,2.9,6.1,6.3,8.8,9.8c1.5,1.9,3.1,3.8,4.4,5.9c2.6,3.9,5.1,7.8,6.8,12.1c0.7,1.8,1.2,3.6,1.7,5.5
					c-0.1,0.1-0.2,0.1-0.3,0.1c-2.5-1.3-5.2-2.6-7.7-3.9c-1.5-0.8-3.1-1.4-4.5-2.2c-1.3-0.7-2.7-1.5-4-2.3c-0.2-0.1-0.3-0.4-0.4-0.6
					c-0.3-1-0.5-2.1-0.9-3.1c-1.8-4.3-4.3-8.3-7.5-11.7c-1.6-1.7-3.2-3.6-4.9-5.3c-3-2.9-6.4-5.2-9.9-7.4c-3-1.9-5.9-4-9.1-5.6
					c-4.3-2.1-8.8-3.8-13.3-5.6c-1.4-0.6-2.9-1.1-4.4-1.7C730.3,121.3,730.4,121.2,730.4,121.2L730.4,121.2z M708.9,121.8
					c1.3-0.2,2.7-0.7,4.1-0.6c4.3-0.2,8.7-0.3,13.1-0.2c1.6,0,3.1,0.7,4.6,1.3c6,2.3,12.1,4.3,17.7,7.5c4.7,2.7,9.1,5.9,13.5,9.1
					c4.6,3.4,8.2,7.8,11.8,12.2c2.2,2.7,3.7,5.8,5,9.1c0.1,0.2,0.2,0.4,0.2,0.6c0,0.1,0,0.2,0,0.4c-0.6-0.3-1.2-0.5-1.7-0.7
					c-7.1-3.4-14.1-6.8-21.2-10.2c-2.1-1-3.6-2.5-5.2-4.1c-2-2.1-4.1-4.1-6.1-6.3c-2.6-2.6-5.7-4.6-8.7-6.6c-4.7-3-9.5-5.5-14.6-7.3
					c-3-1-6-2.2-9-3.2c-1-0.4-2.1-0.5-3.2-0.7C708.9,122,708.9,121.9,708.9,121.8L708.9,121.8z M699.9,123c2.1,0,4.2-0.1,6.2-0.2
					c0.4,0,0.9-0.1,1.3,0c5.3,1.2,10.3,3.1,15.3,5.2c5.3,2.2,10.2,5,14.9,8.3c2.9,2.1,5.5,4.6,7.8,7.3c1.1,1.2,2.4,2.4,3.6,3.6
					c-0.1,0,0,0.1-0.1,0.1c-1.9-1-3.9-2-5.9-2.9c-4.3-2.2-8.5-4.4-12.7-6.7c-3.4-1.8-7-3-10.7-4.3c-6.2-2.3-12.3-4.7-18.4-7.1
					c-2.3-0.9-4.6-1.9-7-2.8c-0.3-0.1-0.5-0.2-0.9-0.5C695.8,122.9,697.8,123,699.9,123L699.9,123z M701.1,135.4
					c-0.9-2.1-2.8-3.3-4.2-4.9c-1.9-2.1-3.6-4.2-5.4-6.4c-0.6-0.7-1.1-1.3-1.8-2.2c1.4,0.8,2.7,1.6,4.1,2.2c2.7,1.2,5.4,2.3,8.1,3.3
					c5.9,2.5,11.9,5.1,17.9,7.3c5.4,1.9,10.5,4.4,15.5,7.2c3.5,1.9,7.2,3.6,10.8,5.4c1.1,0.5,2.2,1.1,3.5,1.8
					c-0.9,0.2-1.6,0.3-2.3,0.4c-4.9,0.7-9.7,0.2-14.6-0.6c-5.9-1-11.3-3-16.8-5.4c-2.5-1.1-5-2.2-7.4-3.4c-2.4-1.3-4.6-2.8-6.8-4.3
					C701.4,135.8,701.2,135.6,701.1,135.4L701.1,135.4z M702.5,137.5c0.9,0.6,1.7,1,2.2,1.4c2.9,2.2,6.2,3.5,9.5,4.9
					c3,1.3,6,2.5,9,3.7c3.6,1.4,7.5,2.3,11.4,2.9c3.1,0.5,6.2,1.1,9.4,0.7c2.5-0.3,5-0.7,7.6-1c0.3,0,0.6,0.1,0.9,0.2
					c2.6,1.4,5.4,2.7,8,4c3.9,2,7.9,3.8,11.8,5.8c1.6,0.8,3.3,1.6,4.9,2.4c0.1,0,0.2,0.2,0.5,0.3c-1.1,0.1-1.9,0.1-2.7,0.2
					c-2.4,0.3-4.8,0.7-7.2,1c-0.6,0.1-1.2,0.1-1.8,0.1c-2.1-0.1-4.2-0.3-6.3-0.4c-7-0.5-13.7-2-20.5-3.6c-6.2-1.5-12.3-3.5-18.2-5.9
					c-3.2-1.3-6.3-2.8-9.5-4.3c-1.7-0.8-3-2-3.9-3.7C706.1,143.3,704.4,140.5,702.5,137.5L702.5,137.5z M727.2,166.1
					c-3.4-3.6-7-7-10.9-10.1c-2.1-1.6-4-3.4-5.7-5.8c1.4,0.7,2.5,1.2,3.7,1.7c4.4,1.9,8.8,3.7,13.2,5.5c6.1,2.6,12.5,4.1,18.9,5.7
					c5.1,1.3,10.3,2,15.7,2.2c0.5,0,1.1,0.1,1.6,0.2c2.9,0.5,5.8,0.2,8.6-0.3c1.1-0.3,2.3-0.4,3.5-0.4c1.4-0.1,2.8-0.1,4.1-0.7
					c0.4-0.1,1,0,1.4,0.2c3.5,1.8,7.1,3.6,10.7,5.5c1.3,0.7,2.8,1.5,4.1,2.2c0,0.1,0,0.2,0,0.3c-1.5,0.5-2.8,1.1-4.3,1.6
					c-0.4,0.1-0.8,0.1-1.1,0.3c-2.6,1.1-5.5,1.3-8.3,1.5c-4.7,0.2-9.5,0.3-14.3,0.1c-5.8-0.3-11.5-0.8-17.2-2.2
					c-4.1-0.9-8.2-2-12.2-3c-2.5-0.6-5-1.4-7.6-2.1C729.4,168.1,728.2,167.3,727.2,166.1L727.2,166.1z M808.8,180.1
					c-1.6,1.2-3.2,2.5-4.7,3.5c-0.6,0.4-1.4,0.6-2,0.8c-4,1.1-8,2.4-12.2,3.3c-2.3,0.5-4.8,0.4-7.2,0.3c-3.8-0.2-7.6-0.6-11.4-1.1
					c-5.4-0.7-10.7-1.7-15.6-4c-3.1-1.4-6.1-3.1-9-4.6c-3.6-1.9-7.2-3.7-10.8-5.8c-1.7-1-3.3-2.1-4.9-3.2c0-0.1,0-0.1,0.1-0.2
					c0.9,0.2,1.8,0.6,2.7,0.8c4.9,1.3,9.7,2.8,14.5,4c3.1,0.8,6.3,1.3,9.5,1.8c2.5,0.4,4.9,0.6,7.5,0.8c2.9,0.2,5.8,0.2,8.7,0.4
					c4.4,0.3,8.7-0.1,13.1-0.9c3.2-0.6,6.3-1.4,9.2-3.1c0.3-0.2,0.7-0.2,0.9-0.1c0.6,0.2,1.1,0.7,1.7,0.9c3.6,1.6,6.5,4.1,9.9,6.1
					C808.7,180.1,808.8,180.1,808.8,180.1L808.8,180.1z M810.1,177.7c0,0.2-0.1,0.5-0.1,0.9c-2.1-1.4-4.1-2.7-6.2-4
					c-1.4-0.8-2.8-1.6-4.2-2.3c-0.6-0.3-0.8-0.7-0.9-1.4c-0.3-2.7-1.2-5.3-2.4-7.7c-4.2-8.5-9.7-15.9-16.1-22.8
					c-2.8-3-6-5.5-9.1-8.1c-5.5-4.5-11.5-8.3-18.3-10.5c-0.2-0.1-0.4-0.2-0.6-0.3c5.3,0.6,10.1,2.5,14.6,5.3
					c6.2,3.8,12.5,7.4,19,10.5c5.2,2.5,9.5,6.2,12.9,10.8c5.4,7,8.8,14.8,10.5,23.4C809.8,173.6,809.8,175.6,810.1,177.7
					L810.1,177.7z"/>
			</g>
		</g>
	</g>
</g>
<g id="New_1_">
	<g id="Home---new_1_" transform="translate(-90.000000, -2670.000000)">
		<g id="Group-16" transform="translate(10.000000, 2670.000000)">
			<path id="Page-1" class="st0" d="M847,139c-0.3-0.5-0.9-0.9-0.9-1.5c-0.3-2.8,0.7-5.4,1.9-7.8c3.5-6.7,4.4-13.6,1.6-20.8
				c-0.5-1.1-1.2-1.6-2.2-1.9c-2.4-0.8-4.8-1.7-6.2-2.2c-2.8-1.9-4.9-3-6.6-4.5c-3.5-3-6.7-6.2-10.1-9.3c-4.4-4-7.5-9-10.1-14.3
				c-1.8-3.6-1.5-7.3-1.5-11.1c0-0.4,0.3-1,0.7-1.2c1.2-1,1.6-2.2,1.7-3.7c0.2-2.5,0.3-4.9,0.6-7.4c0.3-2.2,1.7-3.6,3.8-4.3
				c0.6-0.2,1.4-0.5,1.8-1c2.2-2.6,4.1-5.3,4.6-8.8c0.2-1.1,0.7-1.5,1.8-1.2c1.7,0.5,3.3,0.1,4.6-1.1c1.9-1.8,3.7-3.6,5.5-5.5
				c1.7-1.7,3.1-3.7,5.4-4.8c0.5-0.2,0.9-0.9,1.1-1.5c0.6-1.5,1.1-3,1.8-4.4c1.7-3.3,3.6-6.4,5.4-9.6c0.3-0.5,0.8-0.8,1.2-1.2
				c0.4,0.5,0.9,0.9,1.2,1.4c0.6,1.7,1.2,3.4,1.7,5.1c0.9,2.6,2.1,5,4.2,7c2.9,2.7,5.5,5.7,8.3,8.6c0.5,0.5,1.1,0.9,1.7,1.2
				c2.9,1.1,5.1,2.8,6.7,5.4c2.6,4.3,5.8,8,9.6,11.2c2.9,2.5,5.5,5.3,7.3,8.7c0.2,0.5,0.5,1,0.5,1.6c0,1.2-0.1,2.5-0.3,3.7
				c-0.2,1.1-0.6,2.2-1.2,3.2c-0.9,1.5-1.7,3-1.6,4.9c0.1,1,0,1.9-0.2,2.9c-0.3,1.1-0.7,2.3-1.2,3.3c-0.9,1.4-1.9,2.8-2.9,4.1
				c-0.7,0.9-1.3,2-2.2,2.6c-2.5,1.9-3.9,4.3-5,7.2c-1.5,3.9-4.6,6.2-8.5,7.4c-1.5,0.4-3,0.5-4.4,0.9c-1.1,0.2-2.3,0.4-3.3,0.9
				c-2.9,1.7-5.8,3.4-9.1,4.3c-0.6,0.2-1.3,0.5-1.8,1c-0.6,0.6-1.4,1.3-0.9,2.3c1.6,3.4,1.5,7.1,1.1,10.7
				c-0.6,6.3-2.6,12.3-4.2,18.4C848.2,138.3,847.5,138.6,847,139L847,139z M857,102.5c1.5-0.4,2.9-0.9,4.2-1.7
				c2.4-1.4,5.1-1.8,7.8-2.2c4.4-0.6,7.1-3.4,8.8-7.1c1.2-2.6,2.2-5.2,4.8-6.9c1.9-1.2,2.8-3.1,3.9-4.9c0.4-0.7,1.1-1.2,1.5-1.9
				c0.6-1.2,1.3-2.4,1.6-3.7c0.3-1.1,0-2.3,0.2-3.4c0.3-1.3,0.9-2.6,1.4-3.9c0.4-1.1,1-2.1,1.3-3.3c1.1-4.3-1.4-7.2-4.1-10
				c-3.2-3.3-6.5-6.5-9.6-9.8c-1.1-1.1-1.9-2.5-2.7-3.8c-1.6-2.7-3.8-4.7-6.8-5.7c-0.7-0.2-1.3-0.8-1.9-1.4
				c-2.8-2.9-5.4-5.8-8.3-8.6c-2.2-2.1-3.5-4.5-4.4-7.3c-0.5-1.6-1.1-3.3-1.8-5.3c-1.9,5-5.7,8.6-7,13.5c-0.4,1.3-1.3,2-2.4,2.9
				c-1.8,1.5-3.4,3.3-5.1,5c-2,1.9-3.9,3.9-6,5.6c-1.3,1.1-3.1,1.1-4.6,0.8c-0.9,2.1-1.7,4.2-2.8,6.1c-1.3,2.2-2.7,4.4-5.5,5
				c-1.2,0.3-2,1.3-2.2,2.6c-0.3,2.6-0.5,5.1-0.7,7.7c-0.1,1.7-0.8,3.1-1.9,4.3c-0.3,0.3-0.5,0.9-0.5,1.3c-0.6,6,1.6,11,4.8,15.9
				c4.4,6.7,10.2,12,16.4,16.9c3.5,2.8,7.4,5.1,12,6c0.4,0.1,0.8,0.1,1.2,0.2c0.3-1.3,0-2.2-0.9-3.2c-3.9-4.7-8.3-8.9-11.6-14.2
				c-2.8-4.4-6.6-8.3-9.8-12.4c-1.8-2.3-3.4-4.7-5.1-7c-0.2-0.3-0.4-0.8-0.3-1.3c0.3,0.4,0.7,0.7,1,1.1c4.4,5.5,8.9,11,13.3,16.5
				c1.2,1.5,2.2,3.1,3.4,4.7c3.2,3.9,6.4,7.8,9.9,12c0.5-2.3,0.2-4-0.6-5.7c-4.7-9.5-10.5-18.3-17.3-26.5c-2.7-3.3-5.2-6.7-7.8-10.1
				c-0.3-0.4-0.5-0.9-0.6-1.3c10.2,11.2,20,22.7,26.6,36.8c0.1-0.5,0.2-0.8,0.2-1.1c0.1-1.9,0-3.9,0.3-5.8c0.4-2.6-0.6-4.8-2.2-6.7
				c-4.4-5.5-7.5-11.9-10.6-18.2c-1.7-3.5-2.9-7.1-4.4-10.7c-0.2-0.5-0.3-1.2-0.5-2.1c2.7,5.8,5.1,11.3,7.9,16.7
				c2.7,5.3,5.6,10.6,9.8,15.2c0.1-0.2,0.1-0.4,0.2-0.5c0.2-4.1,0.5-8.2,0.7-12.4c0-0.9-0.6-2-1.1-2.9c-3.5-6-7-11.8-10.4-17.8
				c-0.7-1.2-0.9-2.7-1.3-4.1c0.1,0,0.2,0,0.4-0.1c2,3.6,3.9,7.4,6,11s4.3,7,6.7,10.5c0.1-0.3,0.2-0.6,0.2-1c0.4-4.1,0.7-8.2,1-12.3
				c0.1-0.7-0.2-1.4-0.5-2c-1.9-4.4-3.8-8.7-5.7-13.1c-0.3-0.6-0.2-1.4-0.1-2.1c2,4.6,4,9.2,6.2,14.1c0.2-0.6,0.2-0.9,0.2-1.1
				c0.4-4.4,0.7-8.8,1.2-13.2c0.5-4.6,0.4-9.1-0.4-13.6c-0.2-1-0.8-1.9-1.2-2.9c0.3-0.1,0.6-0.2,0.9-0.3c0.4,1.1,0.9,2.1,1,3.2
				c0.5,3.9,1,7.8,1.1,11.8c0.1,2.2-0.5,4.4-0.7,6.6c-0.2,2.6-0.4,5.3-0.6,8c0,0.4,0,0.9,0.2,1.3c2.3-5.2,4.6-10.4,7-15.7
				c0.3,1.9-0.6,3.5-1.3,5c-1.9,4.5-3.9,8.9-5.8,13.4c-0.1,0.2-0.2,0.4-0.2,0.7c-0.3,4.7-0.6,9.4-0.8,14.2c5.1-7,9.7-14.4,13.2-22.5
				c-0.1,0.8-0.1,1.6-0.4,2.3c-2.1,4.2-4.1,8.4-6.4,12.5c-1.7,3-3.8,5.8-5.6,8.8c-0.6,1-1,2.2-1.1,3.4c-0.3,3.6-0.5,7.2-0.5,10.9
				c7.8-9.7,16-18.9,23.1-29.1c-0.2,0.4-0.3,0.9-0.5,1.2c-2.5,3.7-4.8,7.5-7.4,11.1c-3.2,4.3-6.7,8.5-10,12.8
				c-1.6,2.1-3.3,4.2-4.8,6.3c-0.4,0.6-0.5,1.5-0.5,2.2c-0.2,3-0.3,6-0.4,8.9c0,0.2,0.1,0.3,0.1,0.6c9.1-11.4,19.5-21.4,29.2-32
				c-1.6,3.4-4.3,6-6.8,8.7c-6.7,7.3-13.3,14.5-19.9,21.9c-1.9,2.1-3.6,4.5-2.7,8c2.6-1.9,5.3-3.7,7.8-5.6c4.1-3.3,8.2-6.7,12.3-9.9
				c0.9-0.7,2-1.2,3.2-1.6c-0.1,0.2-0.2,0.4-0.4,0.5c-5.6,4.7-11.1,9.4-16.8,14c-1.7,1.4-3.7,2.5-5.6,3.8c-0.5,0.3-0.7,0.9-0.9,1.6
				C852.3,103.7,854.7,103.2,857,102.5L857,102.5z"/>
		</g>
	</g>
</g>
</svg>
