<svg xmlns="http://www.w3.org/2000/svg" viewBox="0 0 1200 900" width="1200" height="900">
  <defs>
    <linearGradient id="bgGradient" x1="0%" y1="0%" x2="0%" y2="100%">
      <stop offset="0%" style="stop-color:#f3f4f6"/>
      <stop offset="100%" style="stop-color:#e5e7eb"/>
    </linearGradient>
    <linearGradient id="headerGradient" x1="0%" y1="0%" x2="100%" y2="0%">
      <stop offset="0%" style="stop-color:#059669"/>
      <stop offset="100%" style="stop-color:#10b981"/>
    </linearGradient>
    <filter id="shadow" x="-20%" y="-20%" width="140%" height="140%">
      <feDropShadow dx="0" dy="4" stdDeviation="6" flood-opacity="0.1"/>
    </filter>
    <filter id="cardShadow" x="-10%" y="-10%" width="120%" height="120%">
      <feDropShadow dx="0" dy="2" stdDeviation="4" flood-opacity="0.08"/>
    </filter>
  </defs>

  <!-- Background -->
  <rect width="1200" height="900" fill="url(#bgGradient)"/>

  <!-- Main Container -->
  <rect x="30" y="30" width="1140" height="840" rx="12" fill="white" filter="url(#shadow)"/>

  <!-- Header -->
  <rect x="30" y="30" width="1140" height="80" rx="12" fill="url(#headerGradient)"/>
  <rect x="30" y="80" width="1140" height="30" fill="url(#headerGradient)"/>
  
  <text x="60" y="75" fill="white" font-family="Arial, sans-serif" font-size="24" font-weight="bold">Copias de Seguridad</text>
  <text x="60" y="95" fill="rgba(255,255,255,0.8)" font-family="Arial, sans-serif" font-size="12">Gestiona las copias de seguridad de la base de datos y archivos</text>
  
  <!-- Status Badge -->
  <rect x="950" y="50" width="80" height="28" rx="14" fill="rgba(255,255,255,0.2)"/>
  <text x="990" y="69" fill="white" font-family="Arial, sans-serif" font-size="12" font-weight="bold" text-anchor="middle">Activo</text>
  <circle cx="965" cy="64" r="4" fill="#4ade80"/>

  <!-- Quick Actions Bar -->
  <rect x="50" y="120" width="1100" height="70" rx="8" fill="#f9fafb" stroke="#e5e7eb"/>

  <!-- Backup DB Button -->
  <rect x="70" y="132" width="240" height="46" rx="6" fill="#2563eb"/>
  <rect x="85" y="150" width="18" height="18" rx="2" fill="none" stroke="white" stroke-width="1.5"/>
  <path d="M94 159 L94 153 M89 158 L89 152 M99 158 L99 152 M94 153 L94 149 M89 152 Q94 147 99 152" stroke="white" stroke-width="1.5" fill="none"/>
  <text x="115" y="160" fill="white" font-family="Arial, sans-serif" font-size="13" font-weight="bold">Backup Base de Datos</text>

  <!-- Backup Files Button -->
  <rect x="330" y="132" width="240" height="46" rx="6" fill="#7c3aed"/>
  <g transform="translate(345, 145)">
    <rect x="0" y="0" width="18" height="18" rx="2" fill="none" stroke="white" stroke-width="1.5"/>
    <path d="M4 6 L14 6 M4 10 L14 10 M4 14 L10 14" stroke="white" stroke-width="1.5"/>
  </g>
  <text x="375" y="160" fill="white" font-family="Arial, sans-serif" font-size="13" font-weight="bold">Backup Archivos</text>

  <!-- Backup Full Button -->
  <rect x="590" y="132" width="240" height="46" rx="6" fill="#059669"/>
  <g transform="translate(605, 145)">
    <rect x="0" y="0" width="18" height="18" rx="2" fill="none" stroke="white" stroke-width="1.5"/>
    <path d="M9 5 L9 10 L12 7" stroke="white" stroke-width="1.5" fill="none"/>
    <path d="M6 8 L6 13 L9 10 L12 13 L12 8" stroke="white" stroke-width="1.5" fill="none"/>
  </g>
  <text x="635" y="160" fill="white" font-family="Arial, sans-serif" font-size="13" font-weight="bold">Backup Completo</text>

  <!-- Restore Button -->
  <rect x="850" y="132" width="240" height="46" rx="6" fill="#ea580c"/>
  <g transform="translate(865, 145)">
    <path d="M4 12 L4 6 L8 6 L8 12 M4 12 Q9 12 9 9 M9 9 Q9 6 4 6" stroke="white" stroke-width="1.5" fill="none" transform="rotate(180, 9, 9)"/>
  </g>
  <text x="895" y="160" fill="white" font-family="Arial, sans-serif" font-size="13" font-weight="bold">Restaurar</text>

  <!-- Tabs Navigation -->
  <line x1="50" y1="215" x2="1150" y2="215" stroke="#e5e7eb" stroke-width="1"/>
  
  <!-- Tab Items -->
  <g font-family="Arial, sans-serif" font-size="13">
    <!-- Overview Tab -->
    <g transform="translate(50, 220)">
      <rect x="0" y="0" width="110" height="40" fill="#059669"/>
      <text x="55" y="25" fill="white" text-anchor="middle" font-weight="bold">Resumen</text>
    </g>
    
    <!-- Database Tab -->
    <g transform="translate(160, 220)">
      <rect x="0" y="0" width="130" height="40" fill="#f3f4f6" stroke="#e5e7eb"/>
      <g transform="translate(10, 10)">
        <ellipse cx="9" cy="6" rx="9" ry="6" fill="none" stroke="#6b7280" stroke-width="1.5"/>
        <path d="M0 6 L0 16 Q9 20 18 16 L18 6" fill="none" stroke="#6b7280" stroke-width="1.5"/>
        <path d="M0 10 L18 10" stroke="#6b7280" stroke-width="1.5"/>
      </g>
      <text x="75" y="27" fill="#374151" text-anchor="middle">Base de Datos</text>
    </g>
    
    <!-- Files Tab -->
    <g transform="translate(290, 220)">
      <rect x="0" y="0" width="100" height="40" fill="#f3f4f6" stroke="#e5e7eb"/>
      <g transform="translate(10, 8)">
        <rect x="0" y="0" width="18" height="18" rx="2" fill="none" stroke="#6b7280" stroke-width="1.5"/>
        <path d="M4 6 L14 6 M4 10 L14 10 M4 14 L10 14" stroke="#6b7280" stroke-width="1.5"/>
      </g>
      <text x="70" y="26" fill="#374151" text-anchor="middle">Archivos</text>
    </g>
    
    <!-- Storage Tab -->
    <g transform="translate(390, 220)">
      <rect x="0" y="0" width="140" height="40" fill="#f3f4f6" stroke="#e5e7eb"/>
      <g transform="translate(10, 8)">
        <rect x="0" y="4" width="18" height="12" rx="2" fill="none" stroke="#6b7280" stroke-width="1.5"/>
        <circle cx="5" cy="10" r="2" fill="#6b7280"/>
        <circle cx="13" cy="10" r="2" fill="#6b7280"/>
      </g>
      <text x="85" y="26" fill="#374151" text-anchor="middle">Almacenamiento</text>
    </g>
    
    <!-- Notifications Tab -->
    <g transform="translate(530, 220)">
      <rect x="0" y="0" width="130" height="40" fill="#f3f4f6" stroke="#e5e7eb"/>
      <g transform="translate(10, 8)">
        <path d="M9 2 L17 6 L17 12 Q17 17 9 18 Q1 17 1 12 L1 6 Z" fill="none" stroke="#6b7280" stroke-width="1.5"/>
        <path d="M7 8 L9 10 L13 6" stroke="#6b7280" stroke-width="1.5" fill="none"/>
      </g>
      <text x="80" y="26" fill="#374151" text-anchor="middle">Notificaciones</text>
    </g>
    
    <!-- Logs Tab -->
    <g transform="translate(660, 220)">
      <rect x="0" y="0" width="90" height="40" fill="#f3f4f6" stroke="#e5e7eb"/>
      <g transform="translate(10, 8)">
        <rect x="0" y="0" width="18" height="18" rx="2" fill="none" stroke="#6b7280" stroke-width="1.5"/>
        <path d="M4 5 L14 5 M4 9 L14 9 M4 13 L10 13" stroke="#6b7280" stroke-width="1.5"/>
      </g>
      <text x="65" y="26" fill="#374151" text-anchor="middle">Historial</text>
    </g>
  </g>

  <!-- Overview Content Area -->
  <g transform="translate(50, 280)">
    
    <!-- Status Cards Row -->
    <g>
      <!-- Card 1: Last Backup -->
      <rect x="0" y="0" width="260" height="100" rx="8" fill="white" filter="url(#cardShadow)"/>
      <text x="20" y="30" fill="#6b7280" font-family="Arial, sans-serif" font-size="12">Último Backup</text>
      <text x="20" y="60" fill="#111827" font-family="Arial, sans-serif" font-size="22" font-weight="bold">Hace 2 horas</text>
      <circle cx="225" cy="50" r="20" fill="#d1fae5"/>
      <path d="M218 50 L224 56 L234 44" stroke="#059669" stroke-width="3" fill="none"/>
      
      <!-- Card 2: Total Backups -->
      <rect x="280" y="0" width="260" height="100" rx="8" fill="white" filter="url(#cardShadow)"/>
      <text x="300" y="30" fill="#6b7280" font-family="Arial, sans-serif" font-size="12">Backups Totales</text>
      <text x="300" y="60" fill="#111827" font-family="Arial, sans-serif" font-size="22" font-weight="bold">156</text>
      <circle cx="505" cy="50" r="20" fill="#dbeafe"/>
      <path d="M498 54 Q505 46 512 54 M505 46 L505 58" stroke="#2563eb" stroke-width="2" fill="none"/>
      
      <!-- Card 3: Space Used -->
      <rect x="560" y="0" width="260" height="100" rx="8" fill="white" filter="url(#cardShadow)"/>
      <text x="580" y="30" fill="#6b7280" font-family="Arial, sans-serif" font-size="12">Espacio Usado</text>
      <text x="580" y="60" fill="#111827" font-family="Arial, sans-serif" font-size="22" font-weight="bold">4.2 GB</text>
      <circle cx="785" cy="50" r="20" fill="#ede9fe"/>
      <ellipse cx="785" cy="50" rx="8" ry="10" fill="none" stroke="#7c3aed" stroke-width="2"/>
      <circle cx="785" cy="50" r="3" fill="#7c3aed"/>
      
      <!-- Card 4: Next Backup -->
      <rect x="840" y="0" width="260" height="100" rx="8" fill="white" filter="url(#cardShadow)"/>
      <text x="860" y="30" fill="#6b7280" font-family="Arial, sans-serif" font-size="12">Próximo Backup</text>
      <text x="860" y="60" fill="#111827" font-family="Arial, sans-serif" font-size="22" font-weight="bold">Mañana 02:00</text>
      <circle cx="1065" cy="50" r="20" fill="#fef3c7"/>
      <circle cx="1065" cy="50" r="10" fill="none" stroke="#d97706" stroke-width="2"/>
      <path d="M1065 42 L1065 50 L1071 53" stroke="#d97706" stroke-width="2" fill="none"/>
    </g>

    <!-- Scheduled Backups Section -->
    <g transform="translate(0, 120)">
      <rect x="0" y="0" width="1100" height="200" rx="8" fill="white" filter="url(#cardShadow)"/>
      <text x="25" y="35" fill="#111827" font-family="Arial, sans-serif" font-size="16" font-weight="bold">Próximos Backups Programados</text>
      
      <!-- Database Backup Item -->
      <rect x="25" y="55" width="1050" height="40" rx="6" fill="#eff6ff"/>
      <rect x="40" y="63" width="30" height="24" rx="4" fill="#3b82f6"/>
      <g transform="translate(48, 69)">
        <ellipse cx="7" cy="4" rx="6" ry="4" fill="none" stroke="white" stroke-width="1.5"/>
        <path d="M1 4 L1 12 Q7 15 13 12 L13 4" fill="none" stroke="white" stroke-width="1.5"/>
      </g>
      <text x="85" y="72" fill="#111827" font-family="Arial, sans-serif" font-size="13" font-weight="bold">Base de Datos</text>
      <text x="85" y="86" fill="#6b7280" font-family="Arial, sans-serif" font-size="11">Diario a las 02:00</text>
      <text x="1000" y="72" fill="#111827" font-family="Arial, sans-serif" font-size="12" font-weight="bold" text-anchor="end">Mañana</text>
      <text x="1000" y="86" fill="#6b7280" font-family="Arial, sans-serif" font-size="11" text-anchor="end">02:00 AM</text>
      
      <!-- Files Backup Item -->
      <rect x="25" y="105" width="1050" height="40" rx="6" fill="#f5f3ff"/>
      <rect x="40" y="113" width="30" height="24" rx="4" fill="#8b5cf6"/>
      <g transform="translate(48, 119)">
        <rect x="0" y="0" width="14" height="14" rx="2" fill="none" stroke="white" stroke-width="1.5"/>
        <path d="M3 4 L11 4 M3 7 L11 7 M3 10 L8 10" stroke="white" stroke-width="1.5"/>
      </g>
      <text x="85" y="122" fill="#111827" font-family="Arial, sans-serif" font-size="13" font-weight="bold">Archivos</text>
      <text x="85" y="136" fill="#6b7280" font-family="Arial, sans-serif" font-size="11">Semanal (Domingo) a las 03:00</text>
      <text x="1000" y="122" fill="#111827" font-family="Arial, sans-serif" font-size="12" font-weight="bold" text-anchor="end">Domingo</text>
      <text x="1000" y="136" fill="#6b7280" font-family="Arial, sans-serif" font-size="11" text-anchor="end">03:00 AM</text>
      
      <!-- Full Backup Item -->
      <rect x="25" y="155" width="1050" height="40" rx="6" fill="#ecfdf5"/>
      <rect x="40" y="163" width="30" height="24" rx="4" fill="#10b981"/>
      <g transform="translate(48, 169)">
        <rect x="0" y="0" width="14" height="14" rx="2" fill="none" stroke="white" stroke-width="1.5"/>
        <path d="M7 3 L7 7 L10 5" stroke="white" stroke-width="1.5" fill="none"/>
      </g>
      <text x="85" y="172" fill="#111827" font-family="Arial, sans-serif" font-size="13" font-weight="bold">Completo</text>
      <text x="85" y="186" fill="#6b7280" font-family="Arial, sans-serif" font-size="11">Mensual (día 1) a las 01:00</text>
      <text x="1000" y="172" fill="#111827" font-family="Arial, sans-serif" font-size="12" font-weight="bold" text-anchor="end">1 Abr</text>
      <text x="1000" y="186" fill="#6b7280" font-family="Arial, sans-serif" font-size="11" text-anchor="end">01:00 AM</text>
    </g>

    <!-- Recent Activity Section -->
    <g transform="translate(0, 340)">
      <rect x="0" y="0" width="1100" height="220" rx="8" fill="white" filter="url(#cardShadow)"/>
      <text x="25" y="35" fill="#111827" font-family="Arial, sans-serif" font-size="16" font-weight="bold">Actividad Reciente</text>
      
      <!-- Table Header -->
      <rect x="25" y="50" width="1050" height="30" rx="4" fill="#f9fafb"/>
      <text x="50" y="70" fill="#6b7280" font-family="Arial, sans-serif" font-size="11" font-weight="bold">TIPO</text>
      <text x="200" y="70" fill="#6b7280" font-family="Arial, sans-serif" font-size="11" font-weight="bold">FECHA</text>
      <text x="700" y="70" fill="#6b7280" font-family="Arial, sans-serif" font-size="11" font-weight="bold">TAMAÑO</text>
      <text x="800" y="70" fill="#6b7280" font-family="Arial, sans-serif" font-size="11" font-weight="bold">DURACIÓN</text>
      <text x="950" y="70" fill="#6b7280" font-family="Arial, sans-serif" font-size="11" font-weight="bold">ESTADO</text>
      
      <!-- Row 1 -->
      <g transform="translate(25, 85)">
        <rect x="0" y="0" width="1050" height="35" rx="4" fill="white"/>
        <circle cx="20" cy="17" r="12" fill="#d1fae5"/>
        <path d="M15 17 L19 21 L27 13" stroke="#059669" stroke-width="2" fill="none"/>
        <text x="50" y="22" fill="#111827" font-family="Arial, sans-serif" font-size="12">Completo</text>
        <text x="200" y="22" fill="#6b7280" font-family="Arial, sans-serif" font-size="11">2025-03-18 02:00:00</text>
        <text x="700" y="22" fill="#111827" font-family="Arial, sans-serif" font-size="12">256 MB</text>
        <text x="800" y="22" fill="#111827" font-family="Arial, sans-serif" font-size="12">12m 34s</text>
        <rect x="950" y="6" width="70" height="22" rx="11" fill="#d1fae5"/>
        <text x="985" y="22" fill="#059669" font-family="Arial, sans-serif" font-size="10" font-weight="bold" text-anchor="middle">Exitoso</text>
      </g>
      
      <!-- Row 2 -->
      <g transform="translate(25, 125)">
        <rect x="0" y="0" width="1050" height="35" rx="4" fill="#f9fafb"/>
        <circle cx="20" cy="17" r="12" fill="#d1fae5"/>
        <path d="M15 17 L19 21 L27 13" stroke="#059669" stroke-width="2" fill="none"/>
        <text x="50" y="22" fill="#111827" font-family="Arial, sans-serif" font-size="12">Base de Datos</text>
        <text x="200" y="22" fill="#6b7280" font-family="Arial, sans-serif" font-size="11">2025-03-17 02:00:00</text>
        <text x="700" y="22" fill="#111827" font-family="Arial, sans-serif" font-size="12">45 MB</text>
        <text x="800" y="22" fill="#111827" font-family="Arial, sans-serif" font-size="12">3m 12s</text>
        <rect x="950" y="6" width="70" height="22" rx="11" fill="#d1fae5"/>
        <text x="985" y="22" fill="#059669" font-family="Arial, sans-serif" font-size="10" font-weight="bold" text-anchor="middle">Exitoso</text>
      </g>
      
      <!-- Row 3 -->
      <g transform="translate(25, 165)">
        <rect x="0" y="0" width="1050" height="35" rx="4" fill="white"/>
        <circle cx="20" cy="17" r="12" fill="#fee2e2"/>
        <path d="M15 13 L27 25 M27 13 L15 25" stroke="#dc2626" stroke-width="2" fill="none"/>
        <text x="50" y="22" fill="#111827" font-family="Arial, sans-serif" font-size="12">Archivos</text>
        <text x="200" y="22" fill="#6b7280" font-family="Arial, sans-serif" font-size="11">2025-03-16 03:00:00</text>
        <text x="700" y="22" fill="#111827" font-family="Arial, sans-serif" font-size="12">180 MB</text>
        <text x="800" y="22" fill="#111827" font-family="Arial, sans-serif" font-size="12">8m 45s</text>
        <rect x="950" y="6" width="70" height="22" rx="11" fill="#fee2e2"/>
        <text x="985" y="22" fill="#dc2626" font-family="Arial, sans-serif" font-size="10" font-weight="bold" text-anchor="middle">Fallido</text>
      </g>
    </g>
  </g>

  <!-- Configuration Panel Preview (Right Side) -->
  <g transform="translate(1160, 280)">
    <!-- Database Config Preview -->
    <rect x="0" y="0" width="350" height="400" rx="8" fill="white" filter="url(#cardShadow)"/>
    <rect x="0" y="0" width="350" height="50" rx="8" fill="#2563eb"/>
    <rect x="0" y="30" width="350" height="20" fill="#2563eb"/>
    <text x="20" y="32" fill="white" font-family="Arial, sans-serif" font-size="14" font-weight="bold">Configuración Avanzada</text>
    
    <!-- Toggle -->
    <g transform="translate(20, 65)">
      <rect x="0" y="0" width="310" height="35" rx="6" fill="#f3f4f6"/>
      <text x="15" y="22" fill="#374151" font-family="Arial, sans-serif" font-size="12">Base de Datos</text>
      <rect x="240" y="8" width="50" height="20" rx="10" fill="#059669"/>
      <circle cx="275" cy="18" r="8" fill="white"/>
    </g>
    
    <!-- Schedule Options -->
    <g transform="translate(20, 115)">
      <text x="0" y="0" fill="#374151" font-family="Arial, sans-serif" font-size="11" font-weight="bold">Programación</text>
      <rect x="0" y="8" width="145" height="30" rx="4" fill="white" stroke="#d1d5db"/>
      <text x="15" y="28" fill="#6b7280" font-family="Arial, sans-serif" font-size="11">Diario</text>
      
      <text x="160" y="0" fill="#374151" font-family="Arial, sans-serif" font-size="11" font-weight="bold">Hora</text>
      <rect x="160" y="8" width="150" height="30" rx="4" fill="white" stroke="#d1d5db"/>
      <text x="175" y="28" fill="#6b7280" font-family="Arial, sans-serif" font-size="11">02:00</text>
    </g>
    
    <!-- Retention -->
    <g transform="translate(20, 165)">
      <text x="0" y="0" fill="#374151" font-family="Arial, sans-serif" font-size="11" font-weight="bold">Retención (días)</text>
      <rect x="0" y="8" width="310" height="30" rx="4" fill="white" stroke="#d1d5db"/>
      <text x="15" y="28" fill="#6b7280" font-family="Arial, sans-serif" font-size="11">30</text>
    </g>
    
    <!-- Compression -->
    <g transform="translate(20, 215)">
      <text x="0" y="0" fill="#374151" font-family="Arial, sans-serif" font-size="11" font-weight="bold">Compresión</text>
      <rect x="0" y="8" width="310" height="30" rx="4" fill="white" stroke="#d1d5db"/>
      <text x="15" y="28" fill="#6b7280" font-family="Arial, sans-serif" font-size="11">GZIP (Rápido, buen ratio)</text>
    </g>
    
    <!-- Advanced Options -->
    <g transform="translate(20, 265)">
      <text x="0" y="0" fill="#374151" font-family="Arial, sans-serif" font-size="11" font-weight="bold">Opciones Avanzadas</text>
      
      <rect x="0" y="10" width="310" height="25" fill="#f9fafb"/>
      <rect x="10" y="17" width="14" height="14" rx="2" fill="#2563eb"/>
      <path d="M12 24 L15 27 L20 20" stroke="white" stroke-width="2" fill="none"/>
      <text x="35" y="28" fill="#374151" font-family="Arial, sans-serif" font-size="10">Procedimientos almacenados</text>
      
      <rect x="0" y="40" width="310" height="25" fill="#f9fafb"/>
      <rect x="10" y="47" width="14" height="14" rx="2" fill="#2563eb"/>
      <path d="M12 54 L15 57 L20 50" stroke="white" stroke-width="2" fill="none"/>
      <text x="35" y="58" fill="#374151" font-family="Arial, sans-serif" font-size="10">Triggers</text>
      
      <rect x="0" y="70" width="310" height="25" fill="#f9fafb"/>
      <rect x="10" y="77" width="14" height="14" rx="2" fill="#d1d5db"/>
      <text x="35" y="88" fill="#374151" font-family="Arial, sans-serif" font-size="10">Eventos</text>
    </g>
  </g>

  <!-- Storage Options Preview -->
  <g transform="translate(1160, 700)">
    <rect x="0" y="0" width="350" height="150" rx="8" fill="white" filter="url(#cardShadow)"/>
    <rect x="0" y="0" width="350" height="40" rx="8" fill="#059669"/>
    <rect x="0" y="25" width="350" height="15" fill="#059669"/>
    <text x="20" y="27" fill="white" font-family="Arial, sans-serif" font-size="13" font-weight="bold">Opciones de Almacenamiento</text>
    
    <!-- Storage Icons -->
    <g transform="translate(20, 55)">
      <!-- Local -->
      <g>
        <rect x="0" y="0" width="70" height="70" rx="6" fill="#eff6ff" stroke="#3b82f6" stroke-width="2"/>
        <rect x="15" y="15" width="40" height="25" rx="3" fill="none" stroke="#3b82f6" stroke-width="2"/>
        <circle cx="25" cy="27" r="4" fill="#3b82f6"/>
        <circle cx="45" cy="27" r="4" fill="#3b82f6"/>
        <text x="35" y="58" fill="#2563eb" font-family="Arial, sans-serif" font-size="9" font-weight="bold" text-anchor="middle">Local</text>
      </g>
      
      <!-- FTP -->
      <g transform="translate(85, 0)">
        <rect x="0" y="0" width="70" height="70" rx="6" fill="#f0fdf4" stroke="#22c55e" stroke-width="1"/>
        <circle cx="35" cy="30" r="15" fill="none" stroke="#22c55e" stroke-width="2"/>
        <path d="M35 20 L35 30 L43 33" stroke="#22c55e" stroke-width="2" fill="none"/>
        <text x="35" y="58" fill="#16a34a" font-family="Arial, sans-serif" font-size="9" font-weight="bold" text-anchor="middle">FTP</text>
      </g>
      
      <!-- S3 -->
      <g transform="translate(170, 0)">
        <rect x="0" y="0" width="70" height="70" rx="6" fill="#fff7ed" stroke="#f97316" stroke-width="1"/>
        <path d="M25 25 L35 15 L45 25 L45 45 L25 45 Z" fill="none" stroke="#f97316" stroke-width="2"/>
        <path d="M35 15 L35 45" stroke="#f97316" stroke-width="2"/>
        <text x="35" y="58" fill="#ea580c" font-family="Arial, sans-serif" font-size="9" font-weight="bold" text-anchor="middle">S3</text>
      </g>
      
      <!-- Google Drive -->
      <g transform="translate(255, 0)">
        <rect x="0" y="0" width="70" height="70" rx="6" fill="#fef2f2" stroke="#ef4444" stroke-width="1"/>
        <path d="M35 20 L50 30 L35 40 L20 30 Z" fill="none" stroke="#ef4444" stroke-width="2"/>
        <circle cx="35" cy="30" r="5" fill="#ef4444"/>
        <text x="35" y="58" fill="#dc2626" font-family="Arial, sans-serif" font-size="9" font-weight="bold" text-anchor="middle">G.Drive</text>
      </g>
    </g>
  </g>

  <!-- Decorative Elements -->
  <g opacity="0.5">
    <circle cx="50" cy="850" r="100" fill="#059669" opacity="0.1"/>
    <circle cx="1150" cy="850" r="150" fill="#2563eb" opacity="0.1"/>
  </g>

  <!-- Footer -->
  <text x="600" y="880" fill="#9ca3af" font-family="Arial, sans-serif" font-size="10" text-anchor="middle">Club ViveVerde - Sistema de Copias de Seguridad v1.0</text>

</svg>